<?xml version="1.0" encoding="utf-8"?>
<!-- Generator: Adobe Illustrator 19.0.0, SVG Export Plug-In . SVG Version: 6.00 Build 0)  -->
<svg version="1.1" xmlns="http://www.w3.org/2000/svg" xmlns:xlink="http://www.w3.org/1999/xlink" x="0px" y="0px"
	 viewBox="0 0 960 560" style="enable-background:new 0 0 960 560;" xml:space="preserve">
<style type="text/css">
	.st0{fill:#FEFEFE;}
	.st1{fill:#A1112A;}
	.st2{fill:#050505;}
	.st3{fill:#020202;}
	.st4{fill:#030506;}
	.st5{fill:#0F0403;}
	.st6{fill:#100303;}
	.st7{fill:#100403;}
	.st8{fill:#110504;}
	.st9{fill:#020606;}
	.st10{fill:#0A0204;}
	.st11{fill:#090605;}
	.st12{fill:#0A0202;}
	.st13{fill:#0C0302;}
	.st14{fill:#0E0303;}
	.st15{fill:#060606;}
	.st16{fill:#050506;}
	.st17{fill:#030303;}
	.st18{fill:#240D0E;}
	.st19{fill:#7F8187;}
	.st20{fill:#FDFDFD;}
	.st21{fill:#F8F8F9;}
	.st22{fill:#D9D8D8;}
	.st23{fill:#F8F7F8;}
	.st24{fill:#F1F0F1;}
	.st25{fill:#FAFAFA;}
	.st26{fill:#EEEEEE;}
	.st27{fill:#EFEFEF;}
	.st28{fill:#EEEDED;}
	.st29{fill:#145052;}
	.st30{fill:#F3F3F3;}
	.st31{fill:#1B5A5C;}
	.st32{fill:#236164;}
	.st33{fill:#2E5F5D;}
	.st34{fill:#508183;}
	.st35{fill:#AA514B;}
	.st36{fill:#923838;}
	.st37{fill:#8D4A49;}
	.st38{fill:#704040;}
	.st39{fill:#0D0505;}
	.st40{fill:#C45938;}
	.st41{fill:#C96C4B;}
	.st42{fill:#A0112C;}
	.st43{fill:#BE333F;}
	.st44{fill:#A02E31;}
	.st45{fill:#CF7743;}
	.st46{fill:#EFE4DF;}
	.st47{fill:#E6B596;}
	.st48{fill:#F0A770;}
	.st49{fill:#144A4D;}
	.st50{fill:#215555;}
	.st51{fill:#CC8549;}
	.st52{fill:#D49756;}
	.st53{fill:#775D30;}
	.st54{fill:#090606;}
	.st55{fill:#8B6D3F;}
	.st56{fill:#725C3E;}
	.st57{fill:#695432;}
	.st58{fill:#873330;}
	.st59{fill:#9E413A;}
	.st60{fill:#A2122B;}
	.st61{fill:#B12537;}
	.st62{fill:#9D1128;}
	.st63{fill:#A92733;}
	.st64{fill:#F1B4AF;}
	.st65{fill:#C45536;}
	.st66{fill:#B96B43;}
	.st67{fill:#C06E4C;}
	.st68{fill:#9F5844;}
	.st69{fill:#F7F7F8;}
	.st70{fill:#95ACAC;}
	.st71{fill:#EBEDEF;}
	.st72{fill:#CCD4D8;}
	.st73{fill:#387A7D;}
	.st74{fill:#407E80;}
	.st75{fill:#568F8F;}
	.st76{fill:#D68861;}
	.st77{fill:#ED9575;}
	.st78{fill:#F3A682;}
	.st79{fill:#F9B28F;}
	.st80{fill:#AC1827;}
	.st81{fill:#F7949D;}
	.st82{fill:#F7A8A9;}
	.st83{fill:#D97270;}
	.st84{fill:#DE6B68;}
	.st85{fill:#E19286;}
	.st86{fill:#A1463D;}
	.st87{fill:#EEDFDA;}
	.st88{fill:#F6C997;}
	.st89{fill:#F5E3D1;}
	.st90{fill:#2B6062;}
	.st91{fill:#2C6465;}
	.st92{fill:#356D6D;}
	.st93{fill:#D28C41;}
	.st94{fill:#E7AA6C;}
	.st95{fill:#E7A977;}
	.st96{fill:#EDAE70;}
	.st97{fill:#AB7C38;}
	.st98{fill:#97403B;}
	.st99{fill:#B85F59;}
	.st100{fill:#C5696B;}
	.st101{fill:#DC837E;}
	.st102{fill:#CC7266;}
	.st103{fill:#F4BAB3;}
	.st104{fill:#F5AA98;}
	.st105{fill:#F8E0D8;}
	.st106{fill:#CC756C;}
	.st107{fill:#A61530;}
	.st108{fill:#FDC2AE;}
	.st109{fill:#DE7354;}
	.st110{fill:#EE8E66;}
	.st111{fill:#EB9D78;}
	.st112{fill:#E59771;}
	.st113{fill:#F6AB87;}
</style>
<g id="Livello_2">
</g>
<g id="Livello_1">
	<g id="XMLID_1_">
		<g id="XMLID_2_">
			<g id="XMLID_3_">
				<path id="XMLID_143_" class="st0" d="M478.8,8C638.2,8,797.6,8,957,8c5.8,0,6.4,1.3,6.4,6.4c0,188.8,0,377,0,565.8
					c0,5.1-0.6,7.1-6.4,7.1c-318.8,0-638.2,0-956.9,0c-5.1,0-6.4-1.3-6.4-6.4c0-188.8,0-377.7,0-566.5C-6.3,8-4.4,8,0.7,8
					C160.7,8,319.4,8,478.8,8z"/>
				<path id="XMLID_142_" d="M468.6,461.2c3.2,1.3,5.8,2.6,8.3,3.8c16,8.3,23.7,22.4,21.1,40.3c-1.9,16-15.4,28.8-33.9,33.3
					c-9.6,1.9-18.6,1.3-28.2,1.3c-19.9,0-39.7,0-58.9,0c-1.9,0-4.5,1.3-5.1-1.3c-0.6-1.9,0.6-3.8,2.6-5.1c5.1-3.8,6.4-9.6,6.4-16
					c0-35.9,0-72.3,0-108.2c0-6.4-1.3-12.2-7.1-16c-1.3-1.3-1.9-2.6-1.9-4.5c0.6-1.9,2.6-1.9,3.8-1.9c26.2,0.6,52.5-1.9,78.7,1.3
					c16.6,1.9,30.7,9.6,35.9,27.5C496.1,433,488.5,449,468.6,461.2z"/>
				<path id="XMLID_141_" class="st1" d="M286.2,458c14.7,8.9,23.7,19.9,23.7,37.1c0,16-6.4,29.4-20.5,37.1
					c-24.3,14.1-49.9,14.1-74.2-0.6c-26.9-16-26.9-51.2-1.3-69.1c1.9-1.3,3.8-2.6,6.4-4.5c-8.3-5.8-15.4-11.5-19.2-21.1
					c-6.4-16-0.6-33.3,14.1-42.9c19.2-13.4,53.8-13.4,73.6-0.6c23.1,14.7,23.7,45.4,1.9,61.4C289.4,456.1,288.1,456.7,286.2,458z"/>
				<path id="XMLID_140_" class="st1" d="M155,460.5c5.1,2.6,9.6,4.5,13.4,7.1c19.2,12.8,22.4,38.4,6.4,55
					c-20.5,22.4-67.9,25.6-91.5,6.4c-5.8-4.5-9.6-10.9-10.2-17.9c-1.3-10.9,3.2-19.9,11.5-23.7s19.9-1.9,26.2,4.5
					c6.4,6.4,8.3,19.2,3.8,28.2c-1.3,1.9-2.6,3.8-3.2,5.8c9.6,5.1,22.4,3.2,29.4-3.8c8.3-7.1,10.2-20.5,5.8-32
					c-5.1-11.5-14.1-17.9-26.2-19.9c-3.8-0.6-6.4-1.3-6.4-6.4c0-4.5,0-8.3,6.4-8.9c10.9-1.3,17.9-8.9,20.5-19.2
					c2.6-8.9,2.6-17.9-1.3-26.2c-3.2-8.3-10.9-13.4-19.9-12.2c-5.1,0.6-8.3,1.3-3.8,7.7c5.8,7.7,4.5,20.5-1.3,27.5
					c-6.4,7.7-14.7,9.6-24.3,7.7c-16-3.8-21.1-25.6-8.9-39.1c7.1-8.3,16.6-13.4,27.5-14.7c16-2.6,31.4-1.9,45.4,4.5
					c14.1,6.4,22.4,17.3,23.1,32.6c0.6,15.4-5.8,26.9-19.2,35.2C157.5,459.3,156.2,459.9,155,460.5z"/>
				<path id="XMLID_139_" d="M799.6,471.4c17.3,7.1,28.2,18.6,33.9,35.2c3.8,10.9,7.1,23.1,19.2,28.2c1.9,0.6,1.9,1.9,1.9,3.8
					c0,2.6-1.9,1.9-3.8,1.9c-11.5,0-22.4,0-33.9,0c-5.8,0-8.9-4.5-10.9-8.9c-5.8-14.1-11.5-28.2-17.3-42.2c-0.6-1.9-0.6-5.8-3.2-5.1
					c-3.2,0.6-2.6,3.8-2.6,6.4c0,8.9,0,17.3,0,26.2c0,7.1,1.3,13.4,7.1,17.9c1.3,1.3,2.6,2.6,1.9,4.5c-0.6,2.6-2.6,1.3-4.5,1.3
					c-14.7,0-29.4,0-43.5,0c-1.3,0-3.8,1.3-4.5-1.9c-0.6-1.9,0.6-3.2,1.9-4.5c5.8-4.5,7.1-10.2,6.4-17.3c0-33.3,0-66.6,0-99.8
					c0-7.1-1.3-12.8-6.4-17.3c-3.2-2.6-3.8-5.8,1.3-7.1c11.5-2.6,22.4-3.8,33.9-5.8c5.1-0.6,7.1,0.6,7.1,6.4
					c-0.6,23.1,0,45.4,0,68.5c0,2.6,0,5.1,0,9.6c11.5-8.9,21.1-17.3,30.7-25.6c2.6-1.9,2.6-5.1,0.6-8.3c-2.6-4.5-1.9-6.4,3.8-6.4
					c8.9,0,17.3,0,26.2,0c1.9,0,4.5-1.3,5.1,1.9c0.6,3.2-1.9,3.8-3.8,4.5C828.4,445.2,815.6,459.3,799.6,471.4z"/>
				<path id="XMLID_138_" class="st2" d="M585.7,156.5c0-21.7,0-40.3,0-58.9c0-2.6-1.3-5.8,1.9-7.1c2.6-1.3,5.1,1.3,7.1,2.6
					c4.5,3.2,8.9,6.4,14.1,9.6c3.8,2.6,7.7,3.2,11.5-0.6c5.1-5.8,12.8-8.3,19.2-12.8c4.5-3.2,7.1-0.6,7.1,3.8
					c0,7.7-1.3,14.7-1.3,22.4c0,67.2,0,133.8,0,201c0,12.2-0.6,12.8-12.8,12.8c-12.8,0-25.6,0-38.4,0c-6.4,0-8.9-1.9-8.9-8.9
					c0-33.3-0.6-65.9,0.6-99.2C585.7,199.4,585.1,176.3,585.7,156.5z"/>
				<path id="XMLID_137_" class="st3" d="M363.6,207.1c0,37.7,0,76.2,0,113.9c0,5.1-1.3,8.3-7.1,8.3c-14.7,0-29.4,0-44.8,0
					c-8.9,0-10.9-2.6-10.2-10.2c1.9-30.1,0.6-60.2,1.3-90.2c0-43.5,0-86.4,0-130c0-6.4,1.9-7.1,7.1-3.8c5.1,3.2,10.2,6.4,14.7,9.6
					c4.5,2.6,8.3,3.2,11.5-1.3c5.8-7.7,15.4-9.6,22.4-15.4c4.5-3.2,4.5,0.6,4.5,3.8c0,14.7,0,29.4,0,43.5
					C363.6,159,363.6,182.7,363.6,207.1L363.6,207.1z"/>
				<path id="XMLID_136_" d="M679.8,427.9c33.9,0,56.4,22.4,56.4,56.3c0,34.6-23.7,58.2-57.6,58.2c-33.9,0-57-23.1-57-57
					C621.6,450.9,645.3,427.9,679.8,427.9z"/>
				<path id="XMLID_135_" d="M617.7,484.9c0,34.6-23.1,57.6-57,57.6c-33.9,0-57-23.7-57-57.6c0-34.6,23.7-57,59.5-57
					C596,427.9,617.7,450.9,617.7,484.9z"/>
				<path id="XMLID_134_" d="M883.4,527.1c8.3,3.8,16,3.8,23.1,1.3c8.3-2.6,10.9-10.9,5.1-17.9c-5.1-6.4-12.2-10.2-19.2-14.1
					c-8.3-5.1-17.3-10.2-24.3-17.3c-14.1-14.7-10.9-36.5,7.7-44.8c17.9-8.9,37.1-8.9,55.7-1.3c6.4,2.6,11.5,7.1,14.1,13.4
					c3.2,7.7,1.3,14.7-5.1,19.2c-5.8,4.5-14.1,3.8-19.2-1.3c-5.1-5.1-6.4-12.2-2.6-19.9c0.6-1.3,1.3-1.9,1.9-3.2
					c-5.8-3.2-12.2-4.5-18.6-2.6c-9.6,2.6-11.5,10.9-5.1,18.6c3.8,3.8,8.3,7.1,12.8,9.6c7.7,4.5,15.4,8.9,22.4,14.7
					c11.5,8.9,17.9,20.5,14.7,35.2c-3.2,14.7-14.7,20.5-28.2,23.1c-16.6,3.2-33.3,2.6-49.3-5.1c-5.8-3.2-10.9-7.1-13.4-13.4
					c-3.8-8.3-1.3-17.3,5.8-21.7c6.4-4.5,15.4-4.5,21.1,1.3c6.4,5.8,7.1,14.1,2.6,22.4C885.3,524.6,884.7,525.8,883.4,527.1z"/>
				<path id="XMLID_133_" class="st4" d="M90.9,132.2c2.6-1.3,2.6-5.8,7.1-3.8c3.8,1.9,3.2,5.1,3.2,7.7c0,61.4,0,123.5,0,185
					c0,5.8-1.9,7.7-7.7,7.1c-17.3,0-14.1,0-14.1-13.4c0.6-46.1,2.6-92.8,3.8-138.9c0-1.9,1.3-5.8-1.9-5.8c-3.2-0.6-3.2,3.2-3.2,5.8
					c-4.5,35.9-10.2,71.7-12.8,108.2c-0.6,13.4-3.2,26.2-4.5,39.7c-0.6,4.5-2.6,7.1-7.7,6.4c-14.7-1.9-28.8-3.8-43.5-6.4
					c-4.5-0.6-3.8-3.8-3.2-7.1c3.2-21.7,5.8-44.2,8.9-65.9c5.2-39.7,10.3-79.4,16-119.1c3.2-20.5,1.9-21.1,23.1-17.3
					c10.2,1.9,21.1,4.5,31.4,6.4c4.5,0.6,7.7,1.3,3.2,6.4C87.8,128.3,89,130.2,90.9,132.2z"/>
				<path id="XMLID_132_" class="st1" d="M57.6,455.4c0,19.9,0,39.7,0,60.2c0,7.7,1.3,14.1,8.3,18.6c1.9,1.3,2.6,2.6,2.6,4.5
					c-0.6,2.6-2.6,1.9-4.5,1.9c-16,0-32,0-48.7,0c-1.3,0-3.8,1.3-4.5-1.9c-0.6-1.9,0.6-3.2,2.6-4.5c7.1-3.8,8.3-10.2,8.3-17.3
					c0-32.6,0-65.3,0-98.6c0-5.1-0.6-9.6-6.4-10.9c-2.6-0.6-3.2-1.9-3.2-4.5c0-3.2,2.6-2.6,4.5-3.2c3.8-0.6,8.3-1.3,12.2-1.9
					c6.4-1.3,12.2-3.2,16-8.3c2.6-3.2,6.4-3.2,9.6-2.6c3.8,1.3,1.9,4.5,1.9,7.1C57.6,414.5,57.6,434.9,57.6,455.4z"/>
				<path id="XMLID_131_" class="st5" d="M719.5,208.3c0-35.9,0-72.3,0-108.2c0-10.9,0.6-11.5,9.6-5.8c12.2,7.1,23.7,5.8,35.9,0
					c11.5-5.1,12.2-4.5,12.2,8.3c0,67.9,0,135.7,0,203.6c0,3.8-0.6,7.1-0.6,10.9c-1.3,10.9-1.3,10.9-12.2,10.9c-12.8,0-25,0-37.7,0
					c-5.8,0-7.7-1.9-7.1-7.7C719.5,283.2,719.5,246.1,719.5,208.3L719.5,208.3z"/>
				<path id="XMLID_130_" class="st6" d="M165.2,201.3c0,38.4,0,76.8,0,115.2c0,11.5,0,11.5-11.5,12.2c-11.5,0-23.7-0.6-35.2,0
					c-6.4,0-8.9-1.9-8.9-8.3c0-77.5,0-154.9,0-231.7c0-1.3,0-3.2,0-4.5c0-5.8,2.6-8.3,8.9-8.9C130,74,141.5,74,153,74
					c10.2,0,12.2,1.9,12.2,12.2C165.2,123.8,165.2,162.3,165.2,201.3L165.2,201.3z"/>
				<path id="XMLID_129_" class="st7" d="M787.4,200.6c0-39.7,0-78.7,0-118.4c0-6.4,2.6-8.3,8.3-8.3c14.1,0,27.5,0,41.6,0
					c4.5,0,7.1,1.3,7.7,7.1c1.9,19.9,1.3,39.7,1.3,59.5c0,58.2,0,116.5,0,174.8c0,12.2,0,12.2-12.8,12.2s-25,0-37.7,0
					c-6.4,0-8.3-1.9-8.3-8.3C787.4,280,787.4,240.3,787.4,200.6L787.4,200.6z"/>
				<path id="XMLID_128_" class="st8" d="M372.6,188.5c0-43.5,0-86.4,0-130c0-9.6,1.3-10.9,10.2-10.9c14.1,0,28.2,0,42.2,0
					c5.1,0,7.7,1.9,7.7,7.7c0,60.8-0.6,121.6,0,182.4c0.6,26.9,0,54.4,0,81.3c0,7.1-2.6,8.3-8.9,8.9c-14.1,0-27.5,1.3-41.6,0.6
					c-7.1,0-10.2-2.6-10.2-10.9C372.6,275.6,372.6,232,372.6,188.5L372.6,188.5z"/>
				<path id="XMLID_127_" class="st9" d="M575.5,199.4c0,40.3,0,80.7,0,120.3c0,6.4-1.9,8.3-7.7,7.7c-14.1,0-28.2,0-42.2,0
					c-9.6,0-10.2-0.6-10.2-10.2c0.6-43.5-2.6-87.7-0.6-131.2c1.3-27.5,0.6-55,0.6-81.9c0-9.6,1.3-19.2,1.3-28.8
					c0-5.8,2.6-7.7,8.3-7.7c14.1,0,27.5,0.6,41.6,0c7.1,0,9.6,1.9,9.6,9.6C575.5,118.1,575.5,159,575.5,199.4L575.5,199.4z"/>
				<path id="XMLID_126_" class="st10" d="M293.9,201.3c0,39.1,0,78.1,0,117.2c0,7.7-1.9,10.2-10.2,9.6c-12.2-0.6-24.3-0.6-35.9,0
					c-7.7,0.6-8.3-3.2-8.3-8.9c0-58.2,0-115.8,0-174.1c0-17.9-0.6-35.2-1.3-53.1c0-18.6,0.6-19.2,18.6-19.2c8.9,0,18.6,0,27.5,0
					c6.4,0,8.9,2.6,8.9,9.6C293.9,121.9,293.9,161.6,293.9,201.3z"/>
				<path id="XMLID_125_" class="st11" d="M231.1,206.4c0,36.5,0,73,0,110.1c0,10.9-0.6,12.2-12.2,12.8c-12.2,0.6-24.3,0-35.9,0
					c-6.4,0-8.9-3.2-8.9-9.6c0-73.6,0-147.2,0-220.8c0-6.4,1.9-8.9,7.7-5.1c15.4,8.9,29.4,7.1,43.5-3.2c6.4-4.5,5.1,0.6,5.1,4.5
					c0,29.4,0,58.2,0,87.7C231.1,189.8,231.1,198.1,231.1,206.4L231.1,206.4z"/>
				<path id="XMLID_124_" class="st12" d="M653,200c0-39.7,0-80,0-119.7c0-4.5,1.9-6.4,6.4-6.4c14.7,0,29.4,0,43.5,0
					c5.1,0,7.7,1.9,7.7,7.7c0,79.4,0,158.8,0,238.7c0,6.4-1.9,7.7-8.3,7.7c-13.4-0.6-26.9-0.6-41,0c-6.4,0-8.3-1.9-8.3-8.3
					C653.6,280,653.6,239.7,653,200C653.6,200,653.6,200,653,200z"/>
				<path id="XMLID_123_" class="st13" d="M507.6,324.2c-1.3,3.8-4.5,4.5-8.3,4.5c-16,0-32-0.6-48.7,0c-7.7,0-9.6-2.6-9.6-9.6
					c-2.6-50.6,0.6-101.8,0.6-152.3c-0.6-43.5,0-87.7,0-131.2c0-20.5,0-20.5,20.5-20.5c12.2,0,24.3,0,37.1,0c7.1,0,8.9,2.6,8.9,8.9
					c0,18.6,0,36.5,0,55c1.3,8.9,0,17.9,0.6,26.2c0,1.3,0,2.6-1.3,3.2c-1.3,0-2.6-0.6-3.2-1.3c-2.6-2.6-2.6-5.1-2.6-8.3
					c0-4.5,0.6-9.6-1.3-14.1c-1.3-2.6-1.9-5.1-1.3-7.7c1.3-6.4,1.3-13.4,0-19.9c-0.6-5.1,1.9-10.2,0-15.4c0-1.3-0.6-2.6-0.6-3.8
					s0-2.6,0-3.8c1.3-6.4-1.3-8.9-7.7-8.9c-10.2,0-20.5,0-30.7,0c-6.4,0-8.9,1.9-8.3,8.3c0,2.6,0,5.8,0,8.3c0.6,5.8,0,10.9,0,16.6
					c0.6,6.4,0,12.8,0,18.6c-2.6,65.9-0.6,132.5-1.3,198.4c0,7.7,0,15.4,1.3,23.1c0,3.8,0,7.1,0,10.9c0,8.9,0.6,9.6,10.2,9.6
					s19.2,0,28.2,0c9.6,0.6,9.6,0.6,10.2-8.3c0-1.3,0.6-2.6,0.6-3.8c1.3-2.6,2.6-5.8,5.8-5.1c2.6,0.6,1.3,3.8,1.3,5.8
					C508.3,313.3,508.9,319.1,507.6,324.2z"/>
				<path id="XMLID_122_" class="st14" d="M864.8,127.7c1.3-0.6,4.5-1.3,4.5-2.6c1.3-8.3,8.3-7.1,14.1-8.3c8.3-1.3,16-3.2,24.3-4.5
					c10.2-1.9,12.2-0.6,13.4,9.6c6.4,43.5,12.2,86.4,17.9,130c2.6,20.5,5.8,40.3,8.9,60.8c1.3,8.9,0.6,10.2-8.9,12.2
					c-11.5,1.9-23.1,3.2-34.6,5.8c-5.8,1.3-7.7-1.3-8.3-5.8c-2.6-20.5-5.1-41.6-7.7-62.1c-3.2-26.2-5.8-52.5-8.9-78.1
					c-1.9-14.7-2.6-30.1-6.4-44.8c-1.9-1.9-1.9-5.1-2.6-7.7c0,2.6,1.9,5.8-0.6,8.3c0,1.3,0,1.9-0.6,3.2
					C864.2,138.6,867.4,132.2,864.8,127.7z"/>
				<path id="XMLID_121_" class="st15" d="M738.7,353.7c69.1,0,138.9,0,208,0c3.2,0,8.9-1.9,9.6,1.9c0,4.5-6.4,3.2-9.6,3.8
					c-12.2,0.6-24.3,0.6-35.9,0.6c-120.3,0-240.7,0-361,0c-8.3,0-16.6-0.6-24.3-1.3c-1.9,0-4.5,0-3.8-2.6c0-1.9,2.6-2.6,4.5-2.6
					c1.9,0,3.8,0,5.1,0C600.5,353.7,669.6,353.7,738.7,353.7L738.7,353.7z"/>
				<path id="XMLID_120_" class="st16" d="M864.8,127.7c3.2,0.6,3.2,2.6,3.8,5.1c0,2.6-1.3,5.8,1.3,8.3c1.9,33.9,3.8,67.2,6.4,101.2
					c1.9,25,4.5,49.3,7.1,73.6c1.3,9.6,0,11.5-9.6,11.5c-23.7,0-19.9,3.2-20.5-19.9c-1.9-56.3-1.3-113.3-1.3-169.6
					c0-7.7,1.3-11.5,9.6-10.2C862.9,127.7,864.2,127.7,864.8,127.7z"/>
				<path id="XMLID_119_" class="st17" d="M428.9,356.8c-8.9,3.2-17.3,2.6-25,2.6c-61.4,0.6-123.5,0.6-185,0
					c-32.6-0.6-65.3-1.3-97.3-0.6c-38.4,1.3-77.5-1.3-115.8-0.6c-2.6,0-5.8,0-7.7-1.9C3.9,353,420.6,352.4,428.9,356.8z"/>
				<path id="XMLID_118_" class="st18" d="M507.6,324.2c0-7.1,0-14.1,0-21.7c-5.8,0.6-5.1,5.8-5.1,8.9c-1.3,10.2-0.6,10.2-11.5,9.6
					c10.2-5.8,7.1-16,8.9-25c-0.6-34.6,0-68.5,0-103c0-32.6,0-65.3,0-97.9c0-3.8-0.6-8.3,2.6-11.5c3.8,5.1,0.6,10.9,1.9,16
					c0.6,3.2-0.6,7.1,5.1,8.9c0-10.2,0-19.9,0-28.8c1.9,3.2,1.3,6.4,1.3,9.6c0,75.5,0,151.1,0,227.2
					C508.9,319.1,510.2,322.3,507.6,324.2z"/>
				<path id="XMLID_117_" class="st19" d="M870.6,139.2c-0.6-3.2-1.3-6.4,0.6-10.9c0.6,4.5,1.3,7.7,1.9,10.9
					C872.5,138.6,871.2,138.6,870.6,139.2z"/>
				<path id="XMLID_116_" class="st0" d="M415.5,498.3c0-7.7,0-15.4,0-23.1c0-3.8,0.6-5.8,5.1-5.8c6.4,0.6,12.8,0,19.2,0.6
					c15.4,1.9,24.3,12.8,23.1,30.1c-0.6,14.7-10.9,25.6-26.2,25.6c-7.1,0-16,1.9-19.9-1.3c-4.5-3.8-1.3-12.8-1.3-19.9
					C415.5,502.8,415.5,500.9,415.5,498.3z"/>
				<path id="XMLID_115_" class="st20" d="M415.5,427.9c0-7.7,0-15.4,0-23.1c0-3.8,1.3-5.1,4.5-4.5c4.5,0.6,8.9,0,14.1,0.6
					c13.4,1.9,22.4,12.8,22.4,27.5s-8.3,25-21.7,28.2c-18.6,3.2-19.2,3.2-19.2-14.7C415.5,436.2,415.5,431.8,415.5,427.9z"/>
				<path id="XMLID_114_" class="st0" d="M274,497c0,7.1-1.3,13.4-4.5,19.9c-3.8,7.7-10.2,11.5-18.6,11.5
					c-8.3-0.6-14.1-5.1-16.6-12.8c-5.1-12.8-5.1-26.2,1.3-38.4c3.8-7.1,8.9-11.5,17.3-11.5c8.3,0,13.4,5.1,17.3,12.2
					C273.4,484.2,274.6,490.6,274,497z"/>
				<path id="XMLID_113_" class="st0" d="M270.8,426c0,6.4-1.3,12.8-5.1,17.9c-6.4,9.6-17.3,10.2-25,1.3c-8.9-10.2-9.6-29.4-1.3-41
					c7.7-10.2,19.9-9.6,26.2,1.3C269.5,412.5,271.5,418.9,270.8,426z"/>
				<path id="XMLID_112_" class="st21" d="M613.2,217.9c0,32.6,0,64.7,0,97.3c0,3.2,1.3,7.1-4.5,7.1s-5.1-3.8-5.1-7.1
					c0-65.9-0.6-131.8-0.6-197.8c0-1.3,0-1.9,0-3.2c0.6-2.6-1.3-6.4,1.3-7.1c3.2-0.6,7.1,1.9,8.3,5.8c0.6,2.6,0.6,5.8,0.6,8.3
					C613.2,153.9,613.2,186,613.2,217.9L613.2,217.9z"/>
				<path id="XMLID_111_" class="st0" d="M625.4,220.5c0,30.7,0,62.1,0,92.8c0,1.9,0,3.8,0,5.1c0,2.6-1.3,3.8-3.8,3.8
					c-2.6,0-3.2-1.9-3.2-3.8c0-5.1,0.6-10.2,0.6-15.4c0-58.2,0-115.8,0.6-174.1c0-3.2-2.6-8.9,2.6-9.6c6.4,0,3.2,5.8,3.2,8.9
					C626,159,626,189.8,625.4,220.5C626,220.5,626,220.5,625.4,220.5z"/>
				<path id="XMLID_110_" class="st22" d="M592.1,210.3c0-34.6,0-68.5,0-103c0-2.6-1.9-7.1,1.9-7.1c3.8,0,3.8,3.8,3.8,7.7
					c0,55.7,0,111.4,0,167.1c0,13.4,0,26.9,0,39.7c0,2.6,1.3,5.8-2.6,6.4c-4.5,0-3.2-3.8-3.2-6.4
					C591.5,280.7,591.5,245.4,592.1,210.3C591.5,210.3,591.5,210.3,592.1,210.3z"/>
				<path id="XMLID_109_" class="st23" d="M638.2,218.6c0,31.4,0,62.7,0,94.7c0,1.9,0,3.8,0,6.4c0,1.9-0.6,2.6-2.6,2.6
					c-1.9,0-2.6-1.3-2.6-3.2c0-1.3,0-3.2,0-4.5c0-63.4,0-126.7,0-189.5c0-0.6,0-1.3,0-2.6c0-2.6,0-6.4,3.8-6.4
					c2.6,0,1.3,3.8,1.3,5.8c0,29.4,0,58.9,0,88.3C638.2,212.8,638.2,215.4,638.2,218.6L638.2,218.6z"/>
				<path id="XMLID_108_" class="st24" d="M638.9,101.4c0,5.1-10.2,14.1-15.4,14.1c-3.2,0-1.9-1.9-1.9-3.8
					c0-4.5,10.2-14.1,14.7-14.1C639.5,97.6,638.9,100.2,638.9,101.4z"/>
				<path id="XMLID_107_" class="st25" d="M321.4,216.6c0-31.4,0-62.7,0-94.1c0-3.8-3.2-10.2,2.6-10.9c7.7-1.3,7.7,5.1,7.7,10.9
					c0,39.1-0.6,77.5-0.6,116.5c0,25.6,0.6,51.2,0.6,76.8c0,3.2,1.3,7.1-4.5,7.1c-6.4,0-5.8-3.2-5.8-7.1
					C321.4,282.6,321.4,249.3,321.4,216.6L321.4,216.6z"/>
				<path id="XMLID_106_" class="st26" d="M344.4,213.5c0,33.9,0,67.9,0,101.8c0,2.6,1.9,6.4-2.6,7.1c-5.1,1.3-5.1-2.6-5.1-5.8
					c0-44.8,0-89.6,0-134.4c0-21.7,0-43.5,0-65.3c0-1.3,0-2.6,0-3.8c0-3.2,0-8.3,3.8-8.3c5.1,0,2.6,5.1,2.6,7.7
					c0,33.3,0,67.2,0,100.5C344.4,213.5,344.4,213.5,344.4,213.5z"/>
				<path id="XMLID_105_" class="st27" d="M358.5,209c0,34.6,0,68.5,0,103c0,1.9,0,3.8,0,6.4c0,1.9-0.6,4.5-3.2,3.8
					c-2.6,0-2.6-1.9-2.6-3.8c0-2.6,0-5.1,0-7.7c0-67.9-0.6-135.1-0.6-202.9c0-1.9,0-3.8,0.6-6.4c0.6-3.2,2.6-6.4,5.8-6.4
					c3.8,0.6,1.3,4.5,1.3,6.4C358.5,137.9,358.5,173.1,358.5,209L358.5,209z"/>
				<path id="XMLID_104_" class="st28" d="M308.6,211.5c0-33.9,0-67.9,0-102.4c0-2.6-1.3-5.1,1.3-7.1c0.6-0.6,2.6,0.6,3.2,1.3
					c3.2,1.9,1.3,3.8,1.3,6.4c-0.6,2.6,0,5.1,0,7.7c0,65.3,0,131.2,0.6,196.5c0,1.3,0,2.6,0,3.8c0,1.9-0.6,3.8-3.2,3.2
					c-1.9,0-2.6-1.9-2.6-3.2c0-1.9,0-3.8,0-5.1C309.2,279.4,309.2,245.4,308.6,211.5C309.2,211.5,309.2,211.5,308.6,211.5z"/>
				<path id="XMLID_103_" class="st0" d="M657.4,484.9c0-10.2,1.3-21.7,7.1-32c3.2-5.8,7.7-10.9,14.7-10.9s12.2,4.5,14.7,10.2
					c9.6,21.7,9.6,44.2,0,65.9c-2.6,6.4-8.3,10.9-15.4,10.9s-12.2-5.1-14.7-11.5C658.7,507.2,657.4,496.4,657.4,484.9z"/>
				<path id="XMLID_102_" class="st0" d="M581.9,481.7c0,12.8-0.6,23.7-5.8,34.6c-3.2,7.1-8.3,12.8-16.6,12.8s-12.8-5.8-15.4-12.8
					c-7.7-20.5-7.7-41,0.6-61.4c2.6-7.1,7.7-12.8,15.4-12.8c8.3,0,12.8,5.8,16.6,12.8C580.6,463.8,581.9,473.3,581.9,481.7z"/>
				<path id="XMLID_101_" class="st29" d="M14.8,310.7c1.9-16.6,3.8-33.3,6.4-49.9c2.6-22.4,5.8-44.2,8.9-66.6
					c2.6-15.4,2.6-31.4,7.7-46.7c0.6,0,1.3,0.6,1.9,1.3c6.4,4.5,14.1,3.2,21.1,5.1c4.5,1.9,8.3,0,12.8-1.9
					c-1.9,15.4-3.2,31.4-5.1,46.7C66,219.2,64,239,61.5,259.5c-1.9,15.4-1.3,30.7-5.8,46.1c-2.6-2.6-5.1-3.2-8.3-2.6
					c-5.8,0-11.5-1.9-17.3-2.6c-3.2-0.6-6.4-1.9-8.9,0.6C18.6,305,19.9,310.1,14.8,310.7z"/>
				<path id="XMLID_100_" class="st30" d="M94.1,228.8c0,28.8,0,57,0,85.8c0,3.2,1.3,7.1-3.8,7.1c-5.8,0-3.8-4.5-3.8-7.1
					c0.6-57.6,1.9-115.2,3.2-172.2c0-1.9,0-3.8,0.6-5.1c0-1.3,1.3-1.9,3.2-1.9c1.3,0,1.9,1.3,1.9,2.6c0,1.9,0,3.8,0,6.4
					C94.1,171.8,94.1,200.6,94.1,228.8L94.1,228.8z"/>
				<path id="XMLID_99_" class="st31" d="M37.8,149.5c0-0.6,0-1.3,0-1.9c0-7.1,0.6-14.1,3.2-21.1c10.9-3.2,20.5-2.6,25,5.8
					c-7.1,4.5-13.4-1.3-19.9-0.6c8.3,1.3,16.6,1.3,24.3,4.5c6.4,4.5,1.9,9.6,1.3,14.7c-0.6,3.8-5.1,3.2-8.3,3.2
					C53.8,153.3,45.5,152.7,37.8,149.5z"/>
				<path id="XMLID_98_" class="st32" d="M46.8,301.8c3.2,0,7.7-1.3,7.7,4.5c0,0.6,0,1.3,0,1.3c-1.9,3.2,0.6,7.1-1.9,9.6
					c-3.2,1.9-7.1,0.6-10.2,0c-8.9-1.9-18.6-1.3-27.5-5.1c0-0.6,0-1.3,0-1.9c3.2-3.2,2.6-7.1,3.2-10.9c8.9-0.6,17.9,2.6,26.9,3.8
					C47.4,304.4,46.8,303.1,46.8,301.8z"/>
				<path id="XMLID_97_" class="st33" d="M65.3,132.8c-5.1-4.5-10.2-8.3-17.9-5.1c-1.9,0.6-4.5-0.6-6.4-1.3c-0.6-5.8,0-8.9,7.7-7.1
					c7.1,1.9,14.1,3.2,21.1,3.2c7.1,0.6,7.1,3.8,6.4,8.9c-1.3,7.1-1.9,13.4-2.6,20.5c-2.6,5.8-7.1,5.8-12.2,3.2
					c0.6-0.6,1.9-1.3,2.6-0.6c0.6,0,1.3,0,1.9,0.6c0-1.3-1.3-0.6-1.9-0.6c-1.3,0-1.3-1.3-1.3-1.9c2.6-0.6,6.4,1.3,7.1-1.9
					c0.6-4.5,5.1-8.9-1.3-12.8C69.2,134.7,64.1,136,65.3,132.8z"/>
				<path id="XMLID_96_" class="st34" d="M14.8,312.7c12.8,0.6,25.6,3.2,37.7,4.5c1.9,5.1-1.9,3.8-4.5,3.2
					c-8.9,1.3-17.9-3.8-26.9-3.8C19.3,317.2,14.8,317.2,14.8,312.7z"/>
				<path id="XMLID_95_" class="st29" d="M48.1,320.4c1.9-0.6,4.5,0,4.5-3.2c0.6-3.2-1.3-6.4,1.9-8.9c0,3.2,0,5.8,0,8.9
					C54.5,321.6,52.5,322.9,48.1,320.4z"/>
				<path id="XMLID_94_" class="st35" d="M744.5,132.8c3.8,0,7.1,0,10.9-0.6c7.1-0.6,13.4-1.9,14.1-10.9c0,60.2,0,121,0,181.8
					c-5.1-1.3-8.3-5.8-12.8-5.8c-1.9-1.3-3.2-0.6-5.1-0.6c-10.2,0-10.9-0.6-10.9-10.9c-0.6-48,2.6-96,1.3-144
					C741.9,138.6,741.9,135.3,744.5,132.8z"/>
				<path id="XMLID_93_" class="st36" d="M744.5,132.8c0,16.6,0,33.3,0,49.9c0.6,33.9-2.6,68.5-1.9,102.4c0,7.7,1.3,12.2,9.6,10.2
					c1.3,0,3.2,0,3.8,1.3c-8.9,0.6-18.6-0.6-26.9,4.5c-2.6,1.3-3.2,0-3.2-1.9c0-2.6,0-4.5,0-7.1c0-46.7,0-93.5,0-140.2
					c0-10.2-1.3-20.5,1.9-31.4C728.5,132.8,737.4,130.9,744.5,132.8z"/>
				<path id="XMLID_92_" class="st37" d="M749.6,117.5c-5.1-0.6-12.2,0.6-19.2-1.3c-7.1-1.9-3.2-7.7-3.2-11.5c0-4.5,3.8-1.3,5.8-0.6
					c10.2,2.6,20.5,2.6,30.7-1.9c4.5-1.9,7.1-1.9,7.1,3.8c0,10.9,0,10.9-10.9,11.5C756.6,117.5,754.1,117.5,749.6,117.5z"/>
				<path id="XMLID_91_" class="st38" d="M747.1,321.6c-5.1,0-10.2,0-15.4,0c-1.9,0-4.5,0-4.5-3.2c0-2.6,0.6-3.8,3.8-4.5
					c11.5-2.6,23.7-1.3,35.2-1.3c2.6,0,3.2,1.3,3.2,3.8c0,3.2-1.3,5.1-4.5,5.1C758.6,321.6,752.8,321.6,747.1,321.6L747.1,321.6z"/>
				<path id="XMLID_90_" class="st39" d="M746.4,128.3c-2.6,0-5.8,0-8.3,0c-2.6,0-5.1-0.6-5.1-3.8c0-3.2,2.6-4.5,5.1-3.8
					c5.8,1.9,11.5,1.3,17.3,1.3c1.9,0,4.5,0,4.5,2.6c0,3.2-2.6,3.2-5.1,3.2C752.1,128.3,749.6,128.3,746.4,128.3z"/>
				<path id="XMLID_89_" class="st40" d="M117.8,317.2c0-17.9-0.6-35.2-0.6-53.1c0-58.9,0-117.8,0-176.6c0-5.1,1.3-7.1,7.1-7.1
					c8.9,0.6,18.6,0,27.5,0c3.8,0,6.4,0.6,5.8,5.8c0,71.7,0,143.4-0.6,215.1v0.6c-0.6,0.6-1.3,0.6-1.9,1.3
					c-8.9-1.9-18.6,1.3-27.5,0.6c-1.3,0,0-0.6-0.6,0c-0.6,0,0.6,0,0.6,0.6c1.9,1.3,3.8,1.9,3.8,4.5c0,2.6-3.2,3.2-4.5,2.6
					C121.7,310.7,121,315.9,117.8,317.2z"/>
				<path id="XMLID_88_" class="st41" d="M155.6,301.8c0.6,0,0.6,0,1.3,0c0,3.2-0.6,5.8-0.6,8.9c0,10.2,0,10.2-10.9,10.2
					c-7.7,0-15.4,0-23.1,0c-2.6,0-5.8,0.6-5.1-3.8c0.6-7.7,5.8-8.9,12.2-7.1c1.3-3.2-2.6-3.2-3.2-4.5c5.8-3.2,12.2-1.9,17.9-2.6
					C147.9,301.8,151.7,303.7,155.6,301.8z"/>
				<path id="XMLID_87_" class="st42" d="M836.7,121.9c1.9,2.6,1.3,5.1,1.3,8.3c0,60.2,0,121,0,181.1c0,1.9,0,3.8-1.3,5.8
					c-3.2-3.2-1.9-7.1-2.6-10.9c-1.3-7.7-7.1-2.6-10.9-4.5c-7.1,0-14.7,0-23.1,0.6c3.2,3.8,6.4,2.6,9.6,3.2c3.2,0.6,8.3-0.6,8.3,3.2
					c0.6,5.1-5.1,3.8-8.3,5.1c-3.2,1.3-7.1,0.6-11.5,0c3.2,4.5,7.1,3.8,10.9,4.5c7.1,0.6,14.1-1.9,21.1,2.6
					c-10.2,2.6-21.1,1.3-31.4,1.3c-5.1,0-4.5-3.8-4.5-7.7c0-14.1,0-28.2,0-42.2c0-60.2,0-121,0-181.1c0-2.6-1.3-5.8,1.3-7.7
					c3.2,3.8,1.9,8.9,1.9,12.8c0,1.3,0,3.2,1.3,4.5c5.1,10.2,14.1,10.2,23.7,10.9c4.5,0.6,5.8-4.5,8.9-5.8c5.8,3.8,3.2,7.1-0.6,10.2
					c-9.6,2.6-19.2,0.6-28.8,1.3c-1.3,0,0,0-0.6,0s0,0.6,0.6,1.3c7.7,0.6,15.4,0,23.1,0C830.2,118.1,834.1,118.7,836.7,121.9z"/>
				<path id="XMLID_86_" class="st43" d="M830.2,320.4c-8.3,0-16.6,0-25,0c-2.6,0-4.5,0-6.4-1.3c-1.9-1.3-1.9-3.2-1.9-5.1
					c0.6-2.6,2.6-1.3,3.8-1.3c5.8,0.6,11.5-0.6,16.6-2.6c0-0.6,0-1.3,0-1.9c-4.5,0-9.6,0.6-14.1,0c-2.6-0.6-7.1,0-6.4-4.5
					c0.6-3.8,4.5-2.6,7.1-2.6c7.1,0,14.1,0,20.5,0c-1.3,4.5-5.1,2.6-7.7,2.6c-3.2,0-5.8,0-8.9,0c6.4,0,12.8,0,19.2-0.6
					c3.2-0.6,6.4-0.6,9.6,1.9c0,4.5,0.6,8.3,0.6,12.8C836,321.6,832.8,320.4,830.2,320.4z"/>
				<path id="XMLID_85_" class="st44" d="M831.5,114.2c1.3-3.2,5.8-6.4,0-8.9c-3.2,0-1.3-1.9-1.3-3.2c1.3-1.3,1.9-3.2,1.9-5.1
					c0-1.3,0-1.9,0-3.2c0-0.6,0-1.3,0-1.9c-4.5-3.8-10.2-1.3-15.4-1.9c-3.2-0.6-6.4,0-9.6,0c6.4,0,12.8,0,19.2,0
					c1.9,0,5.8-0.6,5.1,3.2c-5.1,3.2-10.9,1.3-16.6,1.3c-4.5,0.6-9.6-0.6-14.1,0.6c-0.6,0.6-1.3,1.3-1.9,1.3
					c-0.6,0.6-1.3,0.6-2.6,0.6c0-5.1,0-10.2-0.6-15.4c11.5-3.2,23.1-1.3,34.6-1.3c4.5,0,5.1,2.6,5.1,6.4c0,11.5,0,23.1,0,34.6
					c-9.6-2.6-19.2-1.3-28.2-1.3c-3.2,0-5.8,1.3-8.3-1.3c7.1-4.5,15.4-1.3,23.1-1.9C825.8,116.2,829.6,118.7,831.5,114.2z"/>
				<path id="XMLID_84_" class="st45" d="M379,132.2c-0.6-15.4-0.6-30.7,1.3-45.4c9.6-1.9,18.6,0.6,28.2,0c2.6,0,5.8,0,7.7,0
					c-11.5,0.6-23.7,0-35.9-1.3c-0.6-7.7-0.6-16-1.3-23.7c0-3.8,1.9-5.1,5.8-5.1c11.5,0,23.7,0,35.2-0.6c3.8,0,5.8,0.6,5.8,5.1
					c0,12.2-0.6,24.3-0.6,36.5c-4.5,0.6-8.9,0.6-12.2,3.8c-0.6,0.6-1.3,0.6-1.9,0.6c-7.7,0.6-14.7,0.6-21.7-0.6
					c-1.9-0.6-3.2-0.6-5.1,0.6c-1.3,1.3-1.3,2.6-1.3,3.8c0,2.6,0,5.8,0,8.3c-0.6,5.8,0.6,11.5-1.3,17.3
					C380.3,132.8,379.6,132.8,379,132.2z"/>
				<path id="XMLID_83_" class="st46" d="M424.4,319.7c-10.2,3.2-21.1,0.6-31.4,1.3c-4.5,0-8.9,1.9-13.4-1.3
					c-1.3-2.6-0.6-5.1-0.6-7.7c0-41.6,0-83.2,0-124.8c1.9-2.6,2.6-0.6,3.2,0.6c1.3,3.2,1.3,6.4,1.3,9.6c0,35.9,0,71.7,0,107.5
					c0,2.6,0,5.8,0.6,8.3c1.3,3.8,4.5,4.5,7.7,3.2c3.8-1.3,0.6-3.8-0.6-5.1c-1.3-1.9-1.9-4.5-2.6-6.4c-2.6-7.7,0.6-11.5,8.9-10.2
					c3.2,0.6,6.4,2.6,8.9,3.8c8.3,4.5,9.6,3.8,16-3.2c0.6-0.6,1.9-1.3,2.6-0.6C425.1,303.7,426.3,312,424.4,319.7z"/>
				<path id="XMLID_82_" class="st47" d="M424.4,319.7c0-8.3,0-16-0.6-24.3c-2.6-3.2-1.9-7.1-1.9-10.2c0-52.5,0-105.6,0-158.1
					c0.6-4.5,0-8.3,0-12.8c0-7.1-1.9-12.8-10.2-13.4c3.2-5.1,7.1-5.8,12.2-3.2c1.3,10.9,1.3,21.1,1.3,32c0,61.4,0,122.3-0.6,183.7
					C425.7,315.2,426.3,317.8,424.4,319.7z"/>
				<path id="XMLID_81_" class="st47" d="M380.3,186.6c0,35.9,0,72.3,0,108.2c0,8.3,0,16.6,0,25.6c-2.6-7.1-0.6-14.7-0.6-21.7
					c-0.6-55,0-110.1-0.6-165.8h0.6c1.9,1.3,1.9,3.2,2.6,5.1c0.6,13.4,0,26.9,0,40.3C382.9,181.5,382.9,184,380.3,186.6z"/>
				<path id="XMLID_80_" class="st48" d="M380.3,84.8c3.2-1.9,7.1-1.9,10.2-1.3c9.6,1.3,18.6,1.3,28.2,1.3c1.9,0,3.8-0.6,3.8,1.9
					c0,3.2-2.6,1.3-3.8,1.3c-9.6,0-19.9-0.6-29.4-0.6c-3.2,0-6.4,0-8.9-1.3C380.3,86.1,380.3,85.4,380.3,84.8z"/>
				<path id="XMLID_79_" class="st49" d="M567.8,77.1c2.6,2.6,1.3,5.1,1.3,8.3c0,48,0.6,96.7-0.6,144.7c-0.6,26.2,0.6,53.1,0.6,79.4
					c0,7.1-1.3,10.9-8.9,11.5c-10.2,0.6-19.9,0.6-30.1,0c-5.1,0-7.7-2.6-7.1-8.3c0.6-6.4,0-13.4,0-19.9c0-40.3-2.6-80-1.3-120.3
					c1.3-26.9,0.6-54.4,1.3-81.3c1.9-0.6,2.6,1.3,3.8,2.6c4.5,3.2,9.6,1.3,14.1,1.9c5.8,0,11.5,0,17.9,0c2.6,0,5.1,0.6,6.4-2.6
					C565.9,87.4,564,81.6,567.8,77.1z"/>
				<path id="XMLID_78_" class="st50" d="M567.8,77.1c0,5.8,0,11.5,0,17.3c-10.2,3.2-20.5,0.6-30.7,1.3c-3.8,0-8.3,1.3-12.2-1.3
					c0-1.3-0.6-2.6-1.9-3.2c0-15.4,0-16,14.7-15.4C548,76.5,557.6,73.9,567.8,77.1z"/>
				<path id="XMLID_77_" class="st51" d="M247.8,319.7c-2.6-2.6-1.3-5.8-1.3-8.9c0-74.2,0-149.1-0.6-223.4c0-5.1,1.3-7.1,7.1-7.1
					c8.3,0.6,16.6,0.6,25.6,0c6.4-0.6,8.3,1.9,8.3,8.3c0,55,0,110.1,0,165.1c0,20.5,0,40.3,0,60.8c0,1.9,1.3,4.5-1.3,5.8
					c-3.2-3.8-1.9-8.3-2.6-12.2c0-5.1,0.6-10.9-0.6-16c1.9-13.4-1.9-26.9-1.3-40.3c1.3-33.3-0.6-66.6,0-99.2
					c0-10.2-3.2-20.5-1.3-31.4c1.3-3.2,0-4.5-3.8-4.5c-7.1,0-14.7,0-22.4,0c7.1,1.9,15.4-2.6,21.7,3.2c-3.2,5.1-9.6,6.4-14.7,6.4
					c-7.1-0.6-7.7,2.6-8.3,7.7c-1.3,9.6,0,19.2,0,28.8c0,21.7,0,43.5,0,65.3c-0.6,23.1,2.6,46.1,1.9,69.8c-2.6,3.2-4.5,2.6-6.4-0.6
					c0.6,4.5,3.8,5.1,7.7,5.8c3.8,0,8.3,0,12.2,0c2.6,0,6.4,0,6.4,3.8c0,3.8-2.6,5.8-6.4,6.4c-3.8,0.6-7.1,0-10.9,0
					c-1.3,0-2.6-1.3-2.6,1.3c0,1.3,0,1.9,0,2.6C252.9,319.1,249.7,317.8,247.8,319.7z"/>
				<path id="XMLID_76_" class="st52" d="M254.2,314c-1.9-0.6-3.8,0.6-5.8-3.2c5.8,0,10.2,0,15.4,0c2.6,0,4.5,0,7.1,0
					c1.9,0,3.2-1.9,3.2-3.8c0-1.9-1.9-1.9-3.2-1.9c-3.8,0-8.3,0-12.2,0c-10.2,0-10.2,0-8.9-11.5c1.3,3.2,1.9,6.4,5.8,5.1
					c4.5-3.2,10.2-3.2,15.4-2.6c5.1,0.6,10.2,0.6,14.1-3.8c3.2,8.9,0.6,18.6,1.9,27.5c-12.2,1.3-24.3,1.3-37.1,0
					c0.6-3.8,3.8-2.6,6.4-2.6C256.1,315.9,256.1,315.2,254.2,314z"/>
				<path id="XMLID_75_" class="st53" d="M213.8,298.6c-8.9-1.3-17.3-3.8-25.6,1.3c-1.9,0.6-3.2,3.2-5.8,2.6
					c-1.9-2.6-0.6-5.1-0.6-7.1c0-53.1,0-106.9,0-160c0-8.3,0.6-8.9,8.3-7.1c7.1,1.9,14.1,0,21.1,3.8c0.6,3.8-1.9,3.8-3.8,3.8
					c-3.8,0.6-4.5,1.9-4.5,5.8c0.6,43.5,0,87,0,130.6c0,10.2-1.3,21.1,11.5,25C213.8,297.9,213.8,298.6,213.8,298.6z"/>
				<path id="XMLID_74_" class="st54" d="M211.3,132.8c-9.6,0.6-19.2,0-28.8-3.8c0,58.2,0,115.8,0,173.5c1.9-0.6,3.8-1.3,5.8-1.9
					c-1.3,1.9-3.2,4.5-4.5,6.4c-2.6,3.8-1.3,5.8,3.2,5.8c-1.9,5.1,0.6,7.1,5.8,7.1c7.1,0,14.7,0,21.7,0c3.2,0,6.4,0,8.3,1.9
					c-1.9,2.6-4.5,1.3-7.1,1.3c-6.4,0-12.8,0-19.2,0c-17.9,0-21.1-3.8-16.6-22.4c0.6-1.9,0-3.8,0-6.4c0-53.8,0-107.5,0-162
					c0-9.6,0-19.2,0-28.8c0-2.6-1.3-7.7,4.5-3.8l-0.6,0.6c-1.9,14.1-1.9,14.1,12.2,14.1c1.9,0,3.8,0,5.8,0c3.2,0,6.4,0,8.9,0
					c10.9,0,11.5,1.3,10.2,12.2C219.6,130.9,216.4,133.5,211.3,132.8z"/>
				<path id="XMLID_73_" class="st55" d="M219.6,127.7c3.8-10.2,3.2-10.9-7.1-10.2c-3.8,0-7.1,0-10.9,0c-1.9-1.3-3.8-0.6-5.8-0.6
					c-3.2,0-6.4,0-6.4-4.5c0-3.8,2.6-5.8,6.4-6.4c3.8-0.6,8.3,0.6,12.2-0.6c2.6-1.3,4.5-1.9,7.1-3.2c8.3-3.8,8.3-3.8,8.3,5.1
					c2.6,66.6,0.6,133.1,1.3,202.3c-3.2-5.8-7.1-8.9-11.5-10.9h0.6c5.1-3.2,6.4-7.7,6.4-13.4c0-48,0-96.7,0-144.7
					C220.9,136,220.9,131.5,219.6,127.7z"/>
				<path id="XMLID_72_" class="st56" d="M223.5,321.6c-10.9,0-22.4,0-33.3,0c-2.6,0-6.4,1.3-7.7-1.9c-1.3-3.2,1.9-5.8,4.5-7.1
					c8.9,0,17.9,0,26.9,0C220.2,312.7,224.7,314,223.5,321.6z"/>
				<path id="XMLID_71_" class="st57" d="M208.1,105.3c-2.6,2.6-5.8,1.3-8.9,1.3c-3.8,0-7.7,1.3-7.7,5.1c-0.6,5.8,4.5,3.2,7.1,3.8
					c1.3,0.6,1.9,1.3,3.2,1.3c-3.8,0-7.1,0.6-10.9,0c-3.2-0.6-8.3,1.9-8.9-0.6c-1.3-5.1-1.9-10.2,0.6-15.4c0-0.6,1.3-0.6,1.9-0.6
					C192.1,105.3,199.8,105.3,208.1,105.3z"/>
				<path id="XMLID_70_" class="st58" d="M681.8,320.4c-5.8,2.6-11.5,0.6-17.3,0.6c-3.8,0-3.8-3.2-3.8-5.8c0-10.2,0-21.1,0-31.4
					c0-64.7,0-130,0-194.6c0-6.4,1.9-8.3,8.3-8.3c8.9,0.6,17.9,0.6,26.9,0c7.1-0.6,9.6,1.9,9.6,8.9c0,32.6,0,64.7,0,97.3
					c0,22.4,0,44.8,0,67.2c0,20.5-0.6,40.3-1.3,60.8c0,1.9,0.6,3.8-1.9,4.5c-2.6-4.5-3.2-9.6-4.5-14.1c0-0.6,0-1.3,0.6-1.9
					c1.3-2.6,0.6-4.5-3.2-4.5c-8.3,0-16.6,0-24.3,0c-3.8,0-5.1,1.9-5.1,5.1c0,1.3,0,3.2,0,4.5c0,8.3,0,8.3,8.9,8.9
					C676.7,318.4,679.2,317.8,681.8,320.4z"/>
				<path id="XMLID_69_" class="st59" d="M698.4,305c1.9,5.1,3.8,9.6,3.2,15.4c-6.4,0-13.4,0-19.9,0c-0.6,0-1.3,0-2.6,0
					c-17.9-0.6-17.3-0.6-16.6-17.9c0-3.8,1.9-5.1,5.8-5.1c8.9,0,18.6,0,27.5,0c1.9,0,4.5-0.6,4.5,1.3
					C701,300.5,701.6,303.7,698.4,305c-8.3-3.8-16.6,0-25-1.9C681.8,304.4,690.1,301.2,698.4,305z"/>
				<path id="XMLID_68_" class="st60" d="M501.3,83.5c0,67.2,0,135.1,0,202.3c0,3.8,0,8.3-0.6,12.2c-1.9,1.3-4.5,0.6-6.4,2.6
					c-1.9,1.3-3.8,1.3-5.8,1.9c-12.2,0-25,1.3-37.1-0.6c-0.6-0.6-1.9-1.3-2.6-1.3c-1.3-5.8-1.3-11.5-1.3-17.3c0-57,0-113.9,0-170.9
					c0-11.5,0.6-23.1,1.3-34.6c0.6,0,1.9,0,2.6,0.6c1.9,2.6,5.1,3.2,8.3,3.2c10.2,0,19.9,0,30.1,0c3.2,0,5.8-0.6,8.3-3.2
					c0.6-0.6,1.3-0.6,2.6-0.6C500.6,79.7,499.3,81.6,501.3,83.5z"/>
				<path id="XMLID_67_" class="st61" d="M495.5,298.6c1.9-2.6,3.8-1.3,5.8,0c0,6.4-0.6,12.2-1.3,18.6c-0.6,6.4-7.1,1.9-9.6,5.1
					c-11.5,0-23.1,0-33.9,0c-5.1,0-7.7-1.9-7.1-7.1c0-4.5,0-9.6,0-14.7c0.6,0,1.3,0,1.9,0c1.9,2.6,5.1,1.9,7.7,1.9
					c10.2,0,19.9,0,29.4,0C491,301.8,496.8,306.3,495.5,298.6z"/>
				<path id="XMLID_66_" class="st62" d="M450.7,77.7c-0.6,0-1.3,0-1.3,0c0-6.4,0-12.2,0-18.6c0.6-0.6,1.3-0.6,2.6-0.6
					c14.7,0,29.4,0.6,44.8,0c1.3-0.6,2.6-0.6,3.8-0.6c1.9,6.4,2.6,13.4,0,19.9c-0.6,0-0.6,0-1.3,0c-0.6,0-0.6,0-1.3,0
					c-14.7,0.6-30.1,0.6-44.8,0C452,77.7,451.3,77.7,450.7,77.7z"/>
				<path id="XMLID_65_" class="st63" d="M500,39.4c0,1.3,0,1.9,0,3.2c0,3.8,1.3,7.7-1.3,11.5c-4.5,1.9-9.6,1.9-14.1,0.6
					c-0.6-0.6-1.3-0.6-1.3-1.9c0.6-1.9,2.6-2.6,3.8-2.6c1.9-0.6,5.1-0.6,5.1-3.2c-0.6-3.8-3.8-1.3-5.8-1.9c-8.9,0-17.9,0-27.5,0
					c-3.2,0-6.4,0-8.3-1.9c-3.2-17.3-1.9-18.6,14.7-18.6c8.9,0,18.6,0,27.5,0c9.6,0,11.5,2.6,8.3,12.2c-13.4,3.8-27.5,1.3-41,2.6
					c10.9,0,22.4,0,33.3,0C494.8,38.1,497.4,38.1,500,39.4z"/>
				<path id="XMLID_64_" class="st60" d="M483.3,51.5c0,0.6,0,0.6,0,1.3c-2.6,3.2-6.4,1.9-10.2,2.6c-6.4,0.6-12.8-1.3-19.2,1.3
					c-0.6,0.6-1.3,1.3-1.9,1.3c-0.6,0.6-1.3,1.3-1.9,1.3c-0.6,0-0.6,0-1.3,0c0-5.8,0-11.5,0.6-16.6c12.8,0,25,0,37.7,0
					c0,4.5-3.8,4.5-7.1,5.1c-5.1,0.6-10.2,0-16,0.6C471.2,50.9,478.2,47.1,483.3,51.5z"/>
				<path id="XMLID_63_" class="st64" d="M500,39.4c-6.4,2.6-12.8,1.3-18.6,1.3c-8.9,0.6-17.3,0-26.2,0c-1.9,0-3.8,0-4.5-1.9
					c-0.6-2.6,1.3-3.2,3.2-3.2c15.4,0,30.7,0,45.4,0C500,36.8,500,38.1,500,39.4z"/>
				<path id="XMLID_62_" class="st60" d="M498.7,52.8c0.6-3.2-1.3-7.1,1.3-10.2c3.8,5.1,0,10.2,0,15.4c-0.6,0.6-0.6,1.3-1.3,1.3
					c-0.6,0-1.3-0.6-1.3-1.3c-0.6-1.3-0.6-1.9,0-3.2C497.4,53.4,498,53.4,498.7,52.8z"/>
				<path id="XMLID_61_" class="st65" d="M925.6,207.7c3.2,20.5,6.4,40.3,8.9,60.8c1.9,12.2,3.2,24.3,4.5,36.5c-0.6,0-0.6,0-1.3,0.6
					c-0.6,0-0.6,0-1.3-0.6c-7.7-2.6-14.7,1.3-22.4,1.3c-3.8,0-7.1,2.6-10.9,0.6c-3.2-5.8-1.9-12.8-4.5-18.6
					c-2.6-17.9-5.1-35.2-7.1-53.1c-2.6-19.2-5.1-38.4-5.8-57.6c0.6-3.8-0.6-7.1-0.6-10.9c0-3.8,0.6-7.1,4.5-8.9
					c8.3-1.9,17.3-5.1,26.2-2.6c3.2,8.3,3.2,17.3,3.8,25.6c1.3,10.2,3.8,20.5,4.5,31.4c0,1.3,1.3,0,0,0c0,0,0,0,0-0.6
					C924.3,209.6,924.3,208.3,925.6,207.7z"/>
				<path id="XMLID_60_" class="st66" d="M925.6,207.7c0,1.9,0,3.8,0,5.8c-3.8-19.2-8.3-38.4-8.9-58.2c-1.3-1.3-1.9-1.9-2.6-3.2
					c-1.3-3.2-3.8-2.6-6.4-1.9c-1.9,0.6-4.5,1.3-7.1,0.6c-1.3,0-3.2-0.6-3.8-1.9c-0.6-1.9,1.3-3.2,3.2-3.8c3.2-1.3,7.1-1.3,10.9-5.8
					c-8.3,0-14.7,1.3-21.7,3.2c-2.6,0.6-1.9,3.2,0,4.5c3.8,2.6,3.2,5.1,1.3,8.3c-0.6,1.3,0,2.6,0,3.8c-3.8,1.9-3.2,5.8-3.2,8.9
					c0,3.2,0.6,5.8-1.3,8.9c-2.6-13.4-4.5-27.5-5.1-41c7.7-4.5,17.3-2.6,25-6.4c-7.7,3.8-17.3,1.9-25,6.4c-3.8-8.9-3.2-9.6,5.1-11.5
					c7.1-1.3,14.7-2.6,21.7-4.5c3.8-0.6,6.4,0.6,6.4,5.1c1.9,25,7.7,48.7,9.6,73.6C924.3,201.9,926.3,204.5,925.6,207.7z"/>
				<path id="XMLID_59_" class="st67" d="M903.8,306.3c9.6-3.2,20.5-2.6,30.1-5.1c3.8-1.3,3.2,1.3,3.8,3.8c-7.1,4.5-16,2.6-21.1,4.5
					c5.1-1.9,14.1,0,21.1-4.5c0.6,0,0.6,0,1.3,0c0,0.6,0.6,1.3,0.6,1.9c1.9,10.9,1.9,10.9-9.6,12.2c-7.1-0.6-14.1,0-20.5,0
					C902.6,319.1,902,315.2,903.8,306.3z"/>
				<path id="XMLID_58_" class="st68" d="M903.8,306.3c0,11.5,1.9,13.4,12.2,10.2c5.8-1.9,8.9,3.8,14.1,2.6
					c-7.1,1.3-14.1,3.2-21.7,4.5c-2.6,0.6-5.8,1.3-6.4-3.2c-0.6-10.9-3.8-21.1-3.2-32C903.8,293.5,901.3,300.5,903.8,306.3z"/>
				<path id="XMLID_57_" class="st69" d="M857.8,253.8c-0.6-33.3,0-66.6,1.3-99.8c0-5.1,0-10.9-0.6-16c0-1.9-0.6-3.8,1.9-4.5
					c3.2-0.6,3.8,1.3,3.8,3.8c0.6,13.4,1.3,26.2,1.9,39.7c0.6,16.6,1.3,33.3,2.6,49.9c0.6,8.9,0.6,18.6,1.9,28.2
					c0.6,7.1-3.2,9.6-10.9,7.7C857.8,260.2,859.7,257,857.8,253.8z"/>
				<path id="XMLID_56_" class="st70" d="M857.8,253.8c2.6,1.9,0.6,5.1,1.3,7.7c3.2,4.5,2.6,8.9,2.6,14.1c0,7.1,0,13.4,0,20.5
					c0,4.5-0.6,9.6,0,15.4c1.9-4.5,1.9-8.3,3.2-12.2c1.3-5.8,4.5-8.9,10.2-8.9c0.6,8.9,1.9,17.9,2.6,26.2c0,0.6,0.6,1.9,0,1.9
					c-4.5,4.5-10.9,0.6-16,1.9c-2.6,0.6-4.5-0.6-4.5-3.8C857.8,296.7,856.5,274.9,857.8,253.8z"/>
				<path id="XMLID_55_" class="st71" d="M859.7,298.6c0-12.2,0-24.3,0-37.1c7.7,1.3,12.2-1.9,10.9-9.6c-1.9-8.3-1.3-16.6-1.3-25
					c1.9,11.5,2.6,22.4,3.2,33.9c0,11.5-1.3,23.1-5.8,33.9C864.8,298.6,863.5,301.2,859.7,298.6z"/>
				<path id="XMLID_54_" class="st72" d="M859.7,298.6c5.1,0.6,7.1-3.8,7.1-7.1c0.6-10.2,4.5-19.9,5.1-30.1
					c1.3,9.6,1.9,19.2,3.2,29.4c-10.2,4.5-9.6,14.1-10.9,22.4c0,1.3-0.6,3.2-2.6,3.2s-1.3-2.6-1.3-3.8
					C859.7,307.5,859.7,303.1,859.7,298.6z"/>
				<path id="XMLID_53_" class="st73" d="M46.8,301.8c1.9,0.6,3.8,1.9,5.8,2.6c-12.2,1.3-23.7-1.3-34.6-4.5c0-2.6,1.3-2.6,3.8-1.9
					C29.5,299.2,38.5,300.5,46.8,301.8z"/>
				<path id="XMLID_52_" class="st74" d="M62.1,152.7c1.3,0.6,1.9,1.9,3.8,2.6c-1.9,0-3.8,0-5.1,0.6c-6.4-1.3-12.8-1.9-19.2-3.2
					c-1.9,0-3.2-0.6-3.8-3.2C46.1,148.8,53.8,153.3,62.1,152.7z"/>
				<path id="XMLID_51_" class="st75" d="M65.3,132.8c1.3,1.3,2.6,1.3,3.8,1.3c1.3,0,3.2,0,3.2,1.9c-0.6,1.3-2.6,0.6-3.8,1.3
					c-8.9-1.9-17.9-3.2-26.9-5.1c0-0.6,0-1.3,0-1.9C49.3,131.5,57,132.2,65.3,132.8z"/>
				<path id="XMLID_50_" class="st76" d="M122.3,92.5c-2.6-4.5,0.6-4.5,3.8-4.5c7.7,0,14.7,0,22.4,0c1.9,0,3.8,0.6,4.5-1.9
					c0.6-2.6-2.6-1.9-2.6-3.8c3.8-0.6,6.4,0,5.8,4.5c0,1.9,0,3.8,0,5.1c1.3,6.4-1.3,9.6-8.3,8.3c-8.9-1.3-17.9,1.9-26.9-1.9
					c10.9-1.9,21.7,0,32-1.3c1.3-0.6-0.6-1.3,0,0c-10.2,1.3-20.5,1.3-30.7,0C122.3,95.7,117.2,94.4,122.3,92.5
					c9.6,1.9,19.2,0,24.3,0.6C140.9,93.1,131.3,94.4,122.3,92.5z"/>
				<path id="XMLID_49_" class="st77" d="M138.3,118.7c-5.1,0-10.2,0-15.4,0c-1.3,0-3.2-0.6-3.2-2.6c0-1.9,1.9-1.9,3.2-1.9
					c9.6,0,19.9,0,29.4,0c1.3,0,2.6,0,2.6,1.9c0,1.9-1.3,2.6-2.6,2.6C147.9,118.7,142.8,118.7,138.3,118.7L138.3,118.7z"/>
				<path id="XMLID_48_" class="st78" d="M155.6,301.8c-1.3,3.2-4.5,2.6-7.1,2.6c-7.1,0-14.7,0-21.7,0c-1.9-0.6-4.5,0.6-7.7-3.2
					C131.9,302.4,143.4,297.9,155.6,301.8z"/>
				<path id="XMLID_47_" class="st79" d="M122.3,97.6c10.2,0,20.5,0,30.7,0c0,0.6,0,1.3,0,1.3c-10.9,0-21.1,0-32,0
					C121,98.2,121.7,97.6,122.3,97.6z"/>
				<path id="XMLID_46_" class="st80" d="M831.5,102.1c0,1.3-1.9,1.9,0,3.2c-0.6,6.4-4.5,8.3-10.9,7.7c-8.9-1.3-18.6-1.9-23.1-12.2
					c3.2-3.8,7.7-1.9,11.5-2.6c5.1,0,10.2,0,15.4,0C827.7,98.2,830.2,98.9,831.5,102.1z"/>
				<path id="XMLID_45_" class="st81" d="M831.5,114.2c1.3,0.6,3.2,1.3,2.6,3.2c-0.6,1.9-2.6,1.3-4.5,1.3c-10.2,0-20.5,0-30.1,0
					c-5.1-5.1,0.6-3.8,2.6-3.8c8.3,0,17.3,0,25.6,0C829,114.2,830.2,114.2,831.5,114.2z"/>
				<path id="XMLID_44_" class="st82" d="M836,304.4c-12.2,1.3-25,0.6-37.1-1.3c8.3-3.8,17.3-0.6,25.6-3.2
					C828.4,301.8,834.7,296,836,304.4z"/>
				<path id="XMLID_43_" class="st83" d="M831.5,102.1c-10.9-2.6-22.4-0.6-33.9-1.3c-0.6-1.3-0.6-1.9-1.3-3.2c0.6,0,0.6-0.6,1.3-0.6
					c8.9-4.5,18.6-1.3,27.5-1.9c3.2,0,6.4-0.6,8.9,2.6C834.7,99.5,834.1,101.4,831.5,102.1z"/>
				<path id="XMLID_42_" class="st84" d="M831.5,92.5c-8.3-2.6-17.3-0.6-25.6-1.3c-2.6,0-5.1,1.3-7.7-1.9c3.8-1.9,7.7-1.3,10.9-1.3
					c7.1,0,14.1,0,20.5,0c3.8,0,5.8,0.6,4.5,5.1C833.4,93.8,832.2,93.8,831.5,92.5z"/>
				<path id="XMLID_41_" class="st85" d="M831.5,92.5c1.3,0,1.9,0,3.2,0c0,0.6,0.6,0.6,0.6,1.3c-0.6,1.3-1.3,1.9-2.6,1.9
					c-11.5,0-22.4,1.3-33.9-0.6c0-3.8,3.2-3.2,5.8-3.2C813,92.5,822.6,92.5,831.5,92.5z"/>
				<path id="XMLID_40_" class="st86" d="M798.2,95.7c9.6,0,19.9,0,29.4,0c2.6,0,5.1,0,7.1-1.3c0,1.3,0,2.6,0,3.2
					c-12.2,0-24.3,0-36.5,0C798.2,97,798.2,96.3,798.2,95.7z"/>
				<path id="XMLID_39_" class="st87" d="M380.3,137.3c0-1.3-0.6-3.2-0.6-4.5c0-6.4,0.6-12.2,0.6-18.6c3.8-5.1,8.9-5.8,14.7-6.4
					c6.4-1.3,13.4-0.6,17.3-7.1l0,0c9.6-1.9,9.6-1.9,11.5,7.7c0.6,5.8,0.6,10.9,0.6,16.6c-0.6,0-1.3,0-1.9-1.3
					c-7.7-12.8-7.7-12.8-22.4-10.2c-1.3,0-2.6,0.6-3.8,0.6c-9.6,1.3-11.5,3.2-12.2,13.4C383.5,131.5,385.4,135.3,380.3,137.3z"/>
				<path id="XMLID_38_" class="st47" d="M412.3,100.2c0.6,10.9-9.6,7.7-14.7,8.9c-6.4,1.3-11.5,2.6-17.3,5.1c0-3.2,0-6.4,0-8.9
					c1.9-1.3,1.9-3.2,0-4.5c1.3-2.6,3.8-1.9,6.4-1.3C395,100.8,404,100.2,412.3,100.2z"/>
				<path id="XMLID_37_" class="st88" d="M402,70.7c-5.8,0-10.9,0-16.6,0c-1.3,0-3.2,0-3.8-1.9c0-2.6,1.9-2.6,3.8-2.6
					c10.9,0,22.4,0.6,33.3-1.3c1.9,0,3.8,0,3.8,2.6c0,2.6-1.9,3.2-3.8,3.2C413.5,71.4,407.8,71.4,402,70.7
					C402,71.4,402,71.4,402,70.7z"/>
				<path id="XMLID_36_" class="st89" d="M380.3,100.2c1.9,0,5.1-1.3,5.1,1.3c0.6,3.2-2.6,3.2-5.1,3.2
					C380.3,103.4,380.3,102.1,380.3,100.2z"/>
				<path id="XMLID_35_" class="st0" d="M380.3,137.3c2.6-3.8,0.6-8.3,1.3-12.8c0.6-7.7,4.5-11.5,12.2-12.2c2.6,0,5.1,0,7.7-1.3
					c11.5-3.8,19.9-1.9,23.1,13.4c0,57,0,113.9,0,170.3c-2.6,10.9-8.3,12.8-18.6,5.8c-4.5-3.2-8.3-5.8-14.1-3.8
					c-1.9,0.6-3.8,0.6-1.9,4.5c1.9,4.5,3.2,9.6,7.1,12.8c0.6,0.6,1.3,2.6,0.6,3.2c-4.5,2.6-8.9,1.3-13.4,0.6c-3.2,0-2.6-3.2-2.6-5.1
					c0-1.3,0-3.2,0-4.5c0-38.4,0-77.5,0-115.8c0-2.6,0.6-5.1-1.3-7.7C380.3,170,380.3,153.9,380.3,137.3z"/>
				<path id="XMLID_34_" class="st90" d="M546.1,305c-5.8,0-10.9,0-16.6,0c-1.9,0-3.8,0.6-4.5-1.9c0-2.6,1.9-2.6,3.8-2.6
					c11.5,0,23.1,0,34.6,0c1.9,0,3.8,0,3.8,2.6c0,2.6-2.6,1.9-4.5,1.9C556.9,305,551.8,305,546.1,305L546.1,305z"/>
				<path id="XMLID_33_" class="st91" d="M546.7,114.2c5.1,0,10.9,0,16,0c1.9,0,4.5-0.6,3.8,1.9c0,1.9-2.6,2.6-3.8,2.6
					c-7.1,0-14.1,0.6-20.5-0.6c-4.5-0.6-8.9-1.3-13.4-0.6c-1.3,0-3.2,1.3-3.2-1.3c0-1.9,1.9-2.6,3.2-2.6
					C534.5,114.2,540.3,114.2,546.7,114.2z"/>
				<path id="XMLID_32_" class="st92" d="M524.9,94.4c14.1,0,28.8,0,42.9,0c0,2.6-1.9,3.2-4.5,3.2c-11.5,0-23.1,0-33.9,0
					C526.8,97.6,524.9,97,524.9,94.4z"/>
				<path id="XMLID_31_" class="st93" d="M283.6,292.2c0.6,4.5-1.3,6.4-5.8,6.4c-7.7,0-15.4-1.3-23.1,0c-1.3-4.5-1.3-8.3-1.9-12.8
					c-1.9-42.9-0.6-85.8-1.9-128.7c0-8.9,0.6-17.9,0.6-27.5c0-7.1,2.6-8.3,8.9-5.8c0.6,0.6,2.6,1.3,2.6,0.6
					c3.2-3.8,9.6-1.9,12.8-5.8c1.9-1.9,3.8-1.9,6.4,0c1.9,33.3,0.6,66.6,1.9,99.8c0.6,12.2-1.3,23.7-0.6,35.9
					c0.6,9.6,1.3,19.2,1.3,28.8C284.9,286.4,284.9,289.6,283.6,292.2z"/>
				<path id="XMLID_30_" class="st94" d="M250.3,99.5c9.6-8.3,21.1-3.8,32-4.5c1.9,0,1.9,1.9,1.9,3.2c0,1.9-1.3,3.8-3.2,3.8
					c-3.2,0-6.4,0.6-8.9,0C265.1,100.2,258,100.8,250.3,99.5z"/>
				<path id="XMLID_29_" class="st95" d="M281.7,118.7c-1.9,0-3.8,0-6.4,0c-7.7,0-15.4,0-23.1,0c-1.9,0-3.8,0-3.8-1.9
					c0-2.6,1.9-2.6,3.8-2.6c9.6,0,18.6,0,28.2,0C286.2,114.2,284.9,116.8,281.7,118.7z"/>
				<path id="XMLID_28_" class="st96" d="M252.9,90.5c10.2-3.8,20.5-1.9,30.7,0C273.4,90.5,263.1,90.5,252.9,90.5z"/>
				<path id="XMLID_27_" class="st52" d="M249,267.9c0,5.8,0,12.2,0,17.9h-0.6C248.4,280,248.4,274.2,249,267.9L249,267.9z"/>
				<path id="XMLID_26_" class="st93" d="M254.2,314c2.6,0,5.1-0.6,7.1,1.3c-1.9,3.2-5.1,1.3-7.1,1.9
					C254.2,315.9,254.2,315.2,254.2,314z"/>
				<path id="XMLID_25_" class="st97" d="M219.6,127.7c5.1,1.3,3.2,5.1,3.2,8.3c0,51.2,0,103,0,154.3c0,7.1-1.9,9.6-8.9,8.3
					c-1.9-0.6-3.8-2.6-5.8-2.6c-8.3,0.6-8.9-4.5-8.9-10.9c0-48.7,0-97.9,0-146.6c0-3.2,0.6-4.5,3.8-4.5c2.6,0,5.1,1.3,7.1-1.9
					C213.8,130.9,217,129.6,219.6,127.7z"/>
				<path id="XMLID_24_" class="st98" d="M662.5,89.3c1.3-1.9,3.8-1.3,5.8-1.9c4.5-1.3,2.6-3.2,0.6-5.8c8.9,0,17.3,0,25.6,0
					c6.4,0,8.3,3.2,7.1,10.9c-0.6,0-0.6,0-1.3-0.6c-9.6-1.3-18.6,0-28.2-0.6C669,91.9,665.1,92.5,662.5,89.3z"/>
				<path id="XMLID_23_" class="st98" d="M663.2,95.7c0-1.3,0-1.9,0-3.2c3.8-2.6,7.7-1.9,11.5-1.3c8.9,0.6,17.9-1.9,26.2,1.3l0,0
					c0,12.8-10.2,5.8-15.4,7.7c2.6-4.5,7.7-0.6,10.2-2.6C685.6,98.2,674.1,100.2,663.2,95.7z"/>
				<path id="XMLID_22_" class="st99" d="M701,92.5c-12.8,0-25.6,0-38.4,0c-1.3-1.3-1.3-1.9,0-3.2c10.9,0,21.1,0,32,0
					C697.1,89.9,700.3,88,701,92.5z"/>
				<path id="XMLID_21_" class="st100" d="M662.5,116.2c11.5,0,23.1,0,34.6,0c0,0.6,0,1.3,0,1.3c-11.5,0-23.1,0-35.2,0
					C662.5,117.5,662.5,116.8,662.5,116.2z"/>
				<path id="XMLID_20_" class="st101" d="M663.2,95.7c11.5,0,23.1,0,34.6,0c-3.8,4.5-8.3,1.3-12.2,4.5c-3.2,0-5.8,0-8.9,0
					c-3.8-1.3-7.1-0.6-10.9-0.6C663.2,99.5,661.3,99.5,663.2,95.7L663.2,95.7z"/>
				<path id="XMLID_19_" class="st98" d="M663.2,95.7c0,3.2,2.6,3.2,4.5,3.2c3.2,0,6.4-0.6,9.6,1.3c-3.8,0-7.7,0-12.2,0
					C661.9,100.2,660,98.9,663.2,95.7z"/>
				<path id="XMLID_18_" class="st102" d="M698.4,305c-10.2,0-20.5,0-30.7,0c0-0.6,0-1.3,0-1.3c10.2-3.2,20.5-1.9,30.1-0.6
					C697.8,303.1,697.8,304.4,698.4,305L698.4,305z"/>
				<path id="XMLID_17_" class="st103" d="M498.7,77.7c0.6,5.1-1.3,6.4-6.4,6.4c-11.5,0-23.7,0-35.2,0c-5.1,0-7.1-1.3-6.4-6.4l0,0
					C466.7,75.9,482.7,76.5,498.7,77.7L498.7,77.7z"/>
				<path id="XMLID_16_" class="st104" d="M491,304.4c-11.5,0-23.1,0-34.6,0.6c-3.2,0-5.1-1.3-5.1-4.5c13.4,0,26.2,0,39.7,0
					C492.3,301.8,492.3,303.1,491,304.4z"/>
				<path id="XMLID_15_" class="st105" d="M491,304.4c0-1.3,0-3.2,0-4.5c1.3-0.6,3.2-0.6,4.5-1.3c1.9,0.6,5.1,0.6,3.8,3.8
					C498,306.9,494.2,305,491,304.4z"/>
				<path id="XMLID_14_" class="st106" d="M498,57.3c0,0.6,0.6,1.3,0.6,1.3c-9.6,3.2-19.2,1.3-29.4,1.3c-6.4,0-12.8,1.9-19.2-1.3
					c0-0.6,0.6-1.3,0.6-1.9C466.7,56,482.7,56,498,57.3z"/>
				<path id="XMLID_13_" class="st60" d="M498,77.1c-16,0-31.4,0-47.4,0c2.6-2.6,5.8-1.3,8.9-1.3C472.5,76.5,485.3,73.9,498,77.1z"
					/>
				<path id="XMLID_12_" class="st107" d="M483.3,51.5c-5.8,0-10.9,0-16.6,0c-3.2,0-5.8-0.6-5.8-3.8c0-3.8,3.2-1.9,5.1-2.6
					c4.5,0,9.6,0,14.7,0c2.6,0,5.8,0,7.1-3.2c1.9,1.3,6.4-3.2,6.4,3.2c0,4.5-1.9,6.4-6.4,5.8C485.9,50.9,484.6,51.5,483.3,51.5z"/>
				<path id="XMLID_11_" class="st106" d="M498.7,52.8c0,0.6,0,1.3,0,1.9c-1.3,1.3-3.2,1.9-5.1,1.9c-14.1,0-28.2,0.6-42.2-0.6
					c0-4.5,3.2-3.2,5.8-3.2c8.9,0,17.9,0,26.2-0.6C488.5,52.8,493.6,52.8,498.7,52.8z"/>
				<path id="XMLID_10_" class="st108" d="M450.7,56c6.4-3.2,12.8-1.3,18.6-1.3c9.6-0.6,19.2,0,28.2,0c0,0.6,0,1.9,0,2.6
					c-9.6,3.2-19.9,1.3-29.4,1.3c-5.8,0-12.2,1.9-17.9-1.3C450.7,56.6,450.7,56.6,450.7,56z"/>
				<path id="XMLID_9_" class="st109" d="M907.1,296c9.6-1.3,19.2-2.6,28.2-3.2c0,0.6,0,1.3,0,1.9c-9.6,2.6-18.6,4.5-28.8,3.8
					C907.1,297.9,907.1,296.7,907.1,296z"/>
				<path id="XMLID_8_" class="st110" d="M890.4,159c-1.9,0-3.2-1.3-3.2-3.2c8.9-3.8,17.9-5.8,27.5-3.2c1.3,0.6,1.3,1.9,1.3,3.2
					C907.7,155.8,898.7,156.5,890.4,159z"/>
				<path id="XMLID_7_" class="st65" d="M914.7,152.7c-8.9,1.3-18.6,1.9-27.5,3.2c1.3-2.6,6.4-5.8-0.6-7.7c-0.6,0-3.8-6.4,1.3-7.7
					c6.4-1.3,13.4-2.6,20.5-3.2c1.9,0,4.5-0.6,4.5,2.6c0,2.6-1.9,3.2-3.8,4.5c-3.8,1.3-7.7,2.6-12.8,4.5c5.1,2.6,8.3,0.6,11.5-0.6
					C913.5,146.3,914.7,148.2,914.7,152.7z"/>
				<path id="XMLID_6_" class="st111" d="M880.8,136c0.6-1.9,1.3-2.6,3.8-3.2c7.7-1.3,16-3.2,23.7-5.1c1.3,0,2.6-1.3,3.2,0.6
					c0.6,1.9-1.3,2.6-2.6,2.6C899.4,132.8,890.4,134.1,880.8,136L880.8,136z"/>
				<path id="XMLID_5_" class="st112" d="M937.8,305c0,1.9-0.6,2.6-2.6,3.2c-8.9,1.3-17.9,3.2-26.9,3.8
					C917.3,306.9,928.2,306.9,937.8,305L937.8,305z"/>
				<path id="XMLID_4_" class="st113" d="M122.3,92.5c10.2,0,20.5,0,30.1,0C142.2,93.1,131.9,96.3,122.3,92.5L122.3,92.5z"/>
			</g>
		</g>
	</g>
</g>
</svg>
